# xmcd
# 
# Track frame offsets:
#     150
#     13732
#     29257
#     43855
#     64895
#     77182
#     91300
#     110266
#     125472
#     143713
#     160455
#     174039
#     190671
#     204407
# 
# Disc length: 2943
# 
# Revision: 0
# Processed by: cddbd v1.5.2PL0 Copyright (c) Steve Scherf et al.
# Submitted via: fre:ac v1.0.17
# 
DISCID=b50b7d0e
DTITLE=Ashton Shepherd - Where Country Grows - Deluxe
DYEAR=2011
DGENRE=Country
TTITLE0=Look It Up [Edit]
TTITLE1=I'm Good
TTITLE2=Where Country Grows
TTITLE3=I'm Just A Woman
TTITLE4=More Cows Than People
TTITLE5=Beer On A Boat
TTITLE6=While It Ain't Rainin'
TTITLE7=Tryin' To Go To Church
TTITLE8=That All Leads To One Thing
TTITLE9=Rory's Radio
TTITLE10=Look It Up [Album Version]
TTITLE11=One Summer Gone
TTITLE12=Keepin' It Rural
TTITLE13=What If It Was
EXTD=
EXTT0=
EXTT1=
EXTT2=
EXTT3=
EXTT4=
EXTT5=
EXTT6=
EXTT7=
EXTT8=
EXTT9=
EXTT10=
EXTT11=
EXTT12=
EXTT13=
PLAYORDER=
